<?xml version="1.0" encoding="UTF-8"?>
<!DOCTYPE svg PUBLIC "-//W3C//DTD SVG 1.1//EN" "http://www.w3.org/Graphics/SVG/1.1/DTD/svg11.dtd">
<svg xmlns="http://www.w3.org/2000/svg" version="1.1" width="388px" height="119px" style="shape-rendering:geometricPrecision; text-rendering:geometricPrecision; image-rendering:optimizeQuality; fill-rule:evenodd; clip-rule:evenodd" xmlns:xlink="http://www.w3.org/1999/xlink">
<g><path style="opacity:1" fill="#444595" d="M 12.5,10.5 C 20.0871,10.1858 27.5871,10.5192 35,11.5C 35.4999,24.1623 35.6666,36.8289 35.5,49.5C 44.5,49.5 53.5,49.5 62.5,49.5C 62.3334,36.8289 62.5001,24.1623 63,11.5C 70.4421,10.187 77.9421,10.187 85.5,11.5C 85.9312,12.2935 86.2645,13.1268 86.5,14C 86.647,45.1814 86.4804,76.3481 86,107.5C 78.4419,109.447 70.6085,110.114 62.5,109.5C 62.5,97.1667 62.5,84.8333 62.5,72.5C 53.5,72.5 44.5,72.5 35.5,72.5C 35.5,84.8333 35.5,97.1667 35.5,109.5C 27.5,109.5 19.5,109.5 11.5,109.5C 11.1742,76.4268 11.5076,43.4268 12.5,10.5 Z"/></g>
<g><path style="opacity:1" fill="#3a3e90" d="M 97.5,10.5 C 104.833,10.5 112.167,10.5 119.5,10.5C 119.5,43.5 119.5,76.5 119.5,109.5C 111.833,109.5 104.167,109.5 96.5,109.5C 96.1742,76.4268 96.5076,43.4268 97.5,10.5 Z"/></g>
<g><path style="opacity:1" fill="#3f4193" d="M 189.5,78.5 C 183.588,76.5437 177.255,75.8771 170.5,76.5C 170.5,69.1667 170.5,61.8333 170.5,54.5C 184.323,53.5042 198.323,53.1709 212.5,53.5C 212.5,72.1667 212.5,90.8333 212.5,109.5C 204.826,109.666 197.159,109.5 189.5,109C 189,108.5 188.5,108 188,107.5C 161.804,113.567 142.137,104.901 129,81.5C 120.109,57.9364 124.943,37.7697 143.5,21C 165.955,6.13472 187.455,7.30139 208,24.5C 208.667,25.5 208.667,26.5 208,27.5C 203.5,32 199,36.5 194.5,41C 193.5,41.6667 192.5,41.6667 191.5,41C 180.451,32.6925 169.118,32.3592 157.5,40C 143.757,55.3613 144.757,69.6946 160.5,83C 169.5,87.6667 178.5,87.6667 187.5,83C 189.037,81.8904 189.703,80.3904 189.5,78.5 Z"/></g>
<g><path style="opacity:1" fill="#393e90" d="M 223.5,10.5 C 230.833,10.5 238.167,10.5 245.5,10.5C 245.5,35.8333 245.5,61.1667 245.5,86.5C 257.5,86.5 269.5,86.5 281.5,86.5C 281.5,94.1667 281.5,101.833 281.5,109.5C 261.833,109.5 242.167,109.5 222.5,109.5C 222.174,76.4268 222.508,43.4268 223.5,10.5 Z"/></g>
<g><path style="opacity:1" fill="#3e4192" d="M 327.5,10.5 C 348.46,10.0028 364.627,18.6695 376,36.5C 387.753,63.766 381.586,85.9326 357.5,103C 333.508,114.542 312.342,110.708 294,91.5C 281.205,72.777 280.205,53.4437 291,33.5C 295.5,27.6667 300.667,22.5 306.5,18C 313.302,14.5687 320.302,12.0687 327.5,10.5 Z M 326.5,34.5 C 342.874,32.9234 353.374,39.9234 358,55.5C 358.664,75.8361 348.83,86.0028 328.5,86C 310.272,80.1039 303.772,67.9372 309,49.5C 312.889,42.103 318.722,37.103 326.5,34.5 Z"/></g>
<g><path style="opacity:1" fill="#7d79b3" d="M 170.5,54.5 C 170.5,61.8333 170.5,69.1667 170.5,76.5C 177.255,75.8771 183.588,76.5437 189.5,78.5C 182.922,77.5399 176.255,77.2066 169.5,77.5C 169.175,69.6484 169.508,61.9818 170.5,54.5 Z"/></g>
</svg>
